<svg id="Icons" enable-background="new 0 0 512 512" height="512" viewBox="0 0 512 512" width="512" xmlns="http://www.w3.org/2000/svg"><path d="m456.3 117.9h-386.6c-8.3 0-15 6.7-15 15v260.2c0 8.3 6.7 15 15 15h386.6c8.3 0 15-6.7 15-15v-260.2c0-8.3-6.7-15-15-15zm-389.1 276.8c-.3-.5-.5-1-.5-1.6v-243.4l141.5 109.5zm150.6-128c.2.1 20.8 16.1 21 16.3 7.3 5.2 15.8 7.8 24.3 7.8s17-2.6 24.3-7.8c.2-.1 20.5-15.8 20.6-15.9l134.4 129.1h-359.4zm241.5 126.4c0 .8-.3 1.5-.8 2l-141-135.5 141.8-109.7zm-389.6-263.2h386.6c1.7 0 3 1.4 3 3v1.9l-179.1 138.5c-10.3 7.3-24.1 7.3-34.4 0l-179.1-138.8v-1.7c0-1.6 1.4-2.9 3-2.9z"/></svg>